<svg xmlns="http://www.w3.org/2000/svg" width="58" height="58" viewBox="0 0 58 58">
    <g fill="none" fill-rule="evenodd">
        <g fill="red" fill-rule="nonzero">
            <g>
                <path d="M56.724 44.403c1.701 1.701 1.701 4.459 0 6.16l-6.16 6.161c-1.702 1.701-4.46 1.701-6.161 0L29 41.322 13.597 56.724c-1.701 1.701-4.459 1.701-6.16 0l-6.161-6.16c-1.701-1.702-1.701-4.46 0-6.161L16.678 29 1.276 13.597c-1.701-1.701-1.701-4.459 0-6.16l6.16-6.161c1.702-1.701 4.46-1.701 6.161 0L29 16.678 44.403 1.276c1.701-1.701 4.459-1.701 6.16 0l6.161 6.16c1.701 1.702 1.701 4.46 0 6.161L41.322 29l15.402 15.403z" transform="translate(-367 -429) translate(367 429)"/>
            </g>
        </g>
    </g>
</svg>
